<svg width="176" height="43" viewBox="0 0 176 43" fill="none" xmlns="http://www.w3.org/2000/svg">
<g clip-path="url(#clip0_10127_14812)">
<path d="M61.0293 32.0074C59.28 32.0074 57.808 31.6554 56.6133 30.9514C55.4186 30.2261 54.512 29.2128 53.8933 27.9114C53.2746 26.6101 52.9653 25.1061 52.9653 23.3994C52.9653 21.6928 53.2853 20.1888 53.9253 18.8874C54.5653 17.5648 55.504 16.5301 56.7413 15.7834C57.9786 15.0368 59.4826 14.6634 61.2533 14.6634C62.5546 14.6634 63.7066 14.8874 64.7093 15.3354C65.7333 15.7834 66.5546 16.4448 67.1733 17.3194C67.8133 18.1728 68.2186 19.2394 68.3893 20.5194H64.5493C64.2933 19.7088 63.8666 19.1221 63.2693 18.7594C62.6933 18.3754 62 18.1834 61.1893 18.1834C60.1013 18.1834 59.2373 18.4501 58.5973 18.9834C57.9786 19.4954 57.5306 20.1461 57.2533 20.9354C56.976 21.7248 56.8373 22.5461 56.8373 23.3994C56.8373 24.2954 56.9866 25.1381 57.2853 25.9274C57.584 26.6954 58.0426 27.3141 58.6613 27.7834C59.3013 28.2528 60.1226 28.4874 61.1253 28.4874C61.936 28.4874 62.6613 28.3061 63.3013 27.9434C63.9626 27.5808 64.3893 26.9941 64.5813 26.1834H68.5493C68.4 27.4848 67.9626 28.5728 67.2373 29.4474C66.5333 30.3008 65.6373 30.9408 64.5493 31.3674C63.4613 31.7941 62.288 32.0074 61.0293 32.0074ZM79.1923 32.0074C77.4643 32.0074 75.971 31.6554 74.7123 30.9514C73.475 30.2474 72.515 29.2448 71.8323 27.9434C71.171 26.6421 70.8403 25.1168 70.8403 23.3674C70.8403 21.5968 71.1816 20.0714 71.8643 18.7914C72.547 17.4901 73.507 16.4768 74.7443 15.7514C75.9816 15.0261 77.4643 14.6634 79.1923 14.6634C80.899 14.6634 82.371 15.0261 83.6083 15.7514C84.8456 16.4768 85.795 17.5008 86.4563 18.8234C87.1176 20.1248 87.4483 21.6608 87.4483 23.4314C87.4483 25.1594 87.1176 26.6741 86.4563 27.9754C85.8163 29.2554 84.8776 30.2474 83.6403 30.9514C82.403 31.6554 80.9203 32.0074 79.1923 32.0074ZM79.1603 28.4554C80.227 28.4554 81.0803 28.2208 81.7203 27.7514C82.3816 27.2821 82.8616 26.6634 83.1603 25.8954C83.459 25.1274 83.6083 24.2954 83.6083 23.3994C83.6083 22.5034 83.459 21.6608 83.1603 20.8714C82.8616 20.0821 82.3816 19.4528 81.7203 18.9834C81.0803 18.4928 80.227 18.2474 79.1603 18.2474C78.0936 18.2474 77.2296 18.4928 76.5683 18.9834C75.907 19.4528 75.427 20.0821 75.1283 20.8714C74.8296 21.6394 74.6803 22.4821 74.6803 23.3994C74.6803 24.2954 74.8296 25.1381 75.1283 25.9274C75.4483 26.6954 75.9283 27.3141 76.5683 27.7834C77.2296 28.2314 78.0936 28.4554 79.1603 28.4554ZM90.574 31.7834V14.9194H94.222L94.446 17.0634C94.894 16.4661 95.4167 15.9968 96.014 15.6554C96.6114 15.3141 97.2407 15.0688 97.902 14.9194C98.5634 14.7488 99.182 14.6634 99.758 14.6634C101.358 14.6634 102.617 15.0154 103.534 15.7194C104.473 16.4234 105.134 17.3621 105.518 18.5354C105.902 19.7088 106.094 21.0208 106.094 22.4714V31.7834H102.19V23.1114C102.19 22.4928 102.147 21.8954 102.062 21.3194C101.977 20.7221 101.806 20.1888 101.55 19.7194C101.315 19.2501 100.974 18.8768 100.526 18.5994C100.078 18.3221 99.4807 18.1834 98.734 18.1834C97.8167 18.1834 97.038 18.4288 96.398 18.9194C95.758 19.4101 95.278 20.0714 94.958 20.9034C94.638 21.7141 94.478 22.6421 94.478 23.6874V31.7834H90.574ZM109.762 31.7834V14.9194H113.41L113.634 17.0634C114.082 16.4661 114.604 15.9968 115.202 15.6554C115.799 15.3141 116.428 15.0688 117.09 14.9194C117.751 14.7488 118.37 14.6634 118.946 14.6634C120.546 14.6634 121.804 15.0154 122.722 15.7194C123.66 16.4234 124.322 17.3621 124.706 18.5354C125.09 19.7088 125.282 21.0208 125.282 22.4714V31.7834H121.378V23.1114C121.378 22.4928 121.335 21.8954 121.25 21.3194C121.164 20.7221 120.994 20.1888 120.738 19.7194C120.503 19.2501 120.162 18.8768 119.714 18.5994C119.266 18.3221 118.668 18.1834 117.922 18.1834C117.004 18.1834 116.226 18.4288 115.586 18.9194C114.946 19.4101 114.466 20.0714 114.146 20.9034C113.826 21.7141 113.666 22.6421 113.666 23.6874V31.7834H109.762ZM136.501 32.0074C134.752 32.0074 133.258 31.6448 132.021 30.9194C130.805 30.1941 129.877 29.1914 129.237 27.9114C128.618 26.6101 128.309 25.1061 128.309 23.3994C128.309 21.6928 128.629 20.1888 129.269 18.8874C129.93 17.5648 130.869 16.5301 132.085 15.7834C133.322 15.0368 134.805 14.6634 136.533 14.6634C137.813 14.6634 138.933 14.8981 139.893 15.3674C140.853 15.8154 141.653 16.4341 142.293 17.2234C142.954 18.0128 143.445 18.9088 143.765 19.9114C144.085 20.9141 144.234 21.9701 144.213 23.0794C144.192 23.3354 144.17 23.5914 144.149 23.8474C144.128 24.0821 144.096 24.3381 144.053 24.6154H132.213C132.277 25.3621 132.469 26.0448 132.789 26.6634C133.13 27.2821 133.6 27.7728 134.197 28.1354C134.816 28.4981 135.584 28.6794 136.501 28.6794C137.034 28.6794 137.546 28.6154 138.037 28.4874C138.528 28.3381 138.954 28.1248 139.317 27.8474C139.701 27.5701 139.957 27.2181 140.085 26.7914H143.989C143.712 28.0074 143.2 28.9994 142.453 29.7674C141.706 30.5354 140.81 31.1008 139.765 31.4634C138.741 31.8261 137.653 32.0074 136.501 32.0074ZM132.277 21.7034H140.405C140.405 20.9994 140.245 20.3594 139.925 19.7834C139.605 19.2074 139.146 18.7594 138.549 18.4394C137.973 18.0981 137.269 17.9274 136.437 17.9274C135.541 17.9274 134.794 18.1088 134.197 18.4714C133.6 18.8341 133.141 19.3034 132.821 19.8794C132.501 20.4554 132.32 21.0634 132.277 21.7034ZM155.061 32.0074C153.311 32.0074 151.839 31.6554 150.645 30.9514C149.45 30.2261 148.543 29.2128 147.925 27.9114C147.306 26.6101 146.997 25.1061 146.997 23.3994C146.997 21.6928 147.317 20.1888 147.957 18.8874C148.597 17.5648 149.535 16.5301 150.773 15.7834C152.01 15.0368 153.514 14.6634 155.285 14.6634C156.586 14.6634 157.738 14.8874 158.741 15.3354C159.765 15.7834 160.586 16.4448 161.205 17.3194C161.845 18.1728 162.25 19.2394 162.421 20.5194H158.581C158.325 19.7088 157.898 19.1221 157.301 18.7594C156.725 18.3754 156.031 18.1834 155.221 18.1834C154.133 18.1834 153.269 18.4501 152.629 18.9834C152.01 19.4954 151.562 20.1461 151.285 20.9354C151.007 21.7248 150.869 22.5461 150.869 23.3994C150.869 24.2954 151.018 25.1381 151.317 25.9274C151.615 26.6954 152.074 27.3141 152.693 27.7834C153.333 28.2528 154.154 28.4874 155.157 28.4874C155.967 28.4874 156.693 28.3061 157.333 27.9434C157.994 27.5808 158.421 26.9941 158.613 26.1834H162.581C162.431 27.4848 161.994 28.5728 161.269 29.4474C160.565 30.3008 159.669 30.9408 158.581 31.3674C157.493 31.7941 156.319 32.0074 155.061 32.0074ZM172.872 31.7834C171.506 31.7834 170.376 31.6021 169.48 31.2394C168.605 30.8768 167.944 30.2901 167.496 29.4794C167.069 28.6688 166.856 27.5808 166.856 26.2154V18.3754H164.264V14.9194H166.856V10.2154H170.76V14.9194H174.696V18.3754H170.76V25.7034C170.76 26.5568 170.909 27.2074 171.208 27.6554C171.506 28.1034 172.178 28.3274 173.224 28.3274H174.568V31.7834H172.872Z" fill="#443C8C"/>
<path d="M36.6438 15.451L27.4642 10.131L18.2837 15.451L27.4642 20.771L36.6438 15.451Z" fill="url(#paint0_linear_10127_14812)"/>
<path d="M18.2837 26.0911V15.451L27.4642 20.7711V31.412L18.2837 26.0911Z" fill="url(#paint1_linear_10127_14812)"/>
<path d="M36.643 26.0911V15.451L27.4634 20.7711V31.412L36.643 26.0911Z" fill="url(#paint2_linear_10127_14812)"/>
<path d="M18.28 25.9812L9.10039 20.6611L-0.0800781 25.9812L9.10039 31.3012L18.28 25.9812Z" fill="url(#paint3_linear_10127_14812)"/>
<path d="M-0.0800781 36.6213V25.9812L9.10039 31.3012V41.9422L-0.0800781 36.6213Z" fill="url(#paint4_linear_10127_14812)"/>
<path d="M18.2802 36.6213V25.9812L9.10059 31.3012V41.9422L18.2802 36.6213Z" fill="url(#paint5_linear_10127_14812)"/>
<path d="M36.6438 5.19149L27.4642 -0.12854L18.2837 5.19149L27.4642 10.5115L36.6438 5.19149Z" fill="url(#paint6_linear_10127_14812)"/>
<path d="M18.2837 15.8316V5.19153L27.4642 10.5116V21.1525L18.2837 15.8316Z" fill="url(#paint7_linear_10127_14812)"/>
<path d="M36.643 15.8316V5.19153L27.4634 10.5116V21.1525L36.643 15.8316Z" fill="url(#paint8_linear_10127_14812)"/>
<path d="M27.4587 10.4578L18.2791 5.13782L9.09863 10.4578L18.2791 15.7779L27.4587 10.4578Z" fill="url(#paint9_linear_10127_14812)"/>
<path d="M9.09863 21.0977V10.4576L18.2791 15.7777V26.4186L9.09863 21.0977Z" fill="url(#paint10_linear_10127_14812)"/>
<path d="M27.4584 21.0977V10.4576L18.2788 15.7777V26.4186L27.4584 21.0977Z" fill="url(#paint11_linear_10127_14812)"/>
<path d="M18.28 15.7194L9.10039 10.3994L-0.0800781 15.7194L9.10039 21.0395L18.28 15.7194Z" fill="url(#paint12_linear_10127_14812)"/>
<path d="M-0.0800781 26.3594V15.7194L9.10039 21.0394V31.6803L-0.0800781 26.3594Z" fill="url(#paint13_linear_10127_14812)"/>
<path d="M18.2802 26.3594V15.7194L9.10059 21.0394V31.6803L18.2802 26.3594Z" fill="url(#paint14_linear_10127_14812)"/>
</g>
<defs>
<linearGradient id="paint0_linear_10127_14812" x1="23.5732" y1="12.511" x2="32.5576" y2="18.1584" gradientUnits="userSpaceOnUse">
<stop stop-color="#ECE7FF"/>
<stop offset="1" stop-color="#A58EFF"/>
</linearGradient>
<linearGradient id="paint1_linear_10127_14812" x1="19.3254" y1="15.451" x2="26.6678" y2="30.1945" gradientUnits="userSpaceOnUse">
<stop stop-color="#B5A2FF"/>
<stop offset="1" stop-color="#4E34B8"/>
</linearGradient>
<linearGradient id="paint2_linear_10127_14812" x1="30.3722" y1="18.8747" x2="35.7942" y2="27.3007" gradientUnits="userSpaceOnUse">
<stop stop-color="#6E4AFF"/>
<stop offset="1" stop-color="#1E1447"/>
</linearGradient>
<linearGradient id="paint3_linear_10127_14812" x1="5.20942" y1="23.0412" x2="14.1939" y2="28.6886" gradientUnits="userSpaceOnUse">
<stop stop-color="#ECE7FF"/>
<stop offset="1" stop-color="#A58EFF"/>
</linearGradient>
<linearGradient id="paint4_linear_10127_14812" x1="0.961619" y1="25.9812" x2="8.30402" y2="40.7246" gradientUnits="userSpaceOnUse">
<stop stop-color="#B5A2FF"/>
<stop offset="1" stop-color="#4E34B8"/>
</linearGradient>
<linearGradient id="paint5_linear_10127_14812" x1="12.0094" y1="29.4049" x2="17.4314" y2="37.8309" gradientUnits="userSpaceOnUse">
<stop stop-color="#6E4AFF"/>
<stop offset="1" stop-color="#1E1447"/>
</linearGradient>
<linearGradient id="paint6_linear_10127_14812" x1="23.5732" y1="2.25153" x2="32.5576" y2="7.89889" gradientUnits="userSpaceOnUse">
<stop stop-color="#ECE7FF"/>
<stop offset="1" stop-color="#A58EFF"/>
</linearGradient>
<linearGradient id="paint7_linear_10127_14812" x1="19.3254" y1="5.19153" x2="26.6678" y2="19.935" gradientUnits="userSpaceOnUse">
<stop stop-color="#B5A2FF"/>
<stop offset="1" stop-color="#4E34B8"/>
</linearGradient>
<linearGradient id="paint8_linear_10127_14812" x1="30.3722" y1="8.6152" x2="35.7942" y2="17.0412" gradientUnits="userSpaceOnUse">
<stop stop-color="#6E4AFF"/>
<stop offset="1" stop-color="#1E1447"/>
</linearGradient>
<linearGradient id="paint9_linear_10127_14812" x1="14.3881" y1="7.51789" x2="23.3726" y2="13.1652" gradientUnits="userSpaceOnUse">
<stop stop-color="#ECE7FF"/>
<stop offset="1" stop-color="#A58EFF"/>
</linearGradient>
<linearGradient id="paint10_linear_10127_14812" x1="10.1403" y1="10.4576" x2="17.4827" y2="25.2011" gradientUnits="userSpaceOnUse">
<stop stop-color="#B5A2FF"/>
<stop offset="1" stop-color="#4E34B8"/>
</linearGradient>
<linearGradient id="paint11_linear_10127_14812" x1="21.1877" y1="13.8813" x2="26.6096" y2="22.3073" gradientUnits="userSpaceOnUse">
<stop stop-color="#6E4AFF"/>
<stop offset="1" stop-color="#1E1447"/>
</linearGradient>
<linearGradient id="paint12_linear_10127_14812" x1="5.20942" y1="12.7795" x2="14.1939" y2="18.4268" gradientUnits="userSpaceOnUse">
<stop stop-color="#ECE7FF"/>
<stop offset="1" stop-color="#A58EFF"/>
</linearGradient>
<linearGradient id="paint13_linear_10127_14812" x1="0.961619" y1="15.7194" x2="8.30402" y2="30.4628" gradientUnits="userSpaceOnUse">
<stop stop-color="#B5A2FF"/>
<stop offset="1" stop-color="#4E34B8"/>
</linearGradient>
<linearGradient id="paint14_linear_10127_14812" x1="12.0094" y1="19.143" x2="17.4314" y2="27.569" gradientUnits="userSpaceOnUse">
<stop stop-color="#6E4AFF"/>
<stop offset="1" stop-color="#1E1447"/>
</linearGradient>
<clipPath id="clip0_10127_14812">
<rect width="176" height="43" fill="white"/>
</clipPath>
</defs>
</svg>
